<?xml version="1.0" standalone="no"?>
<!DOCTYPE svg PUBLIC "-//W3C//DTD SVG 20010904//EN"
 "http://www.w3.org/TR/2001/REC-SVG-20010904/DTD/svg10.dtd">
<svg version="1.0" xmlns="http://www.w3.org/2000/svg"
 width="1094.000000pt" height="1237.000000pt" viewBox="0 0 1094.000000 1237.000000"
 preserveAspectRatio="xMidYMid meet">

<g transform="translate(0.000000,1237.000000) scale(0.100000,-0.100000)"
fill="#000000" stroke="none">
<path d="M1810 7383 c-22 -28 -24 -44 -14 -117 6 -41 8 -44 20 -29 8 11 13 13
14 6 0 -7 4 -13 9 -13 12 0 34 126 26 150 -9 30 -33 31 -55 3z"/>
<path d="M1830 7211 c0 -7 -4 -10 -8 -7 -4 2 -9 -8 -10 -24 -3 -43 15 -45 21
-3 4 20 4 39 2 42 -3 2 -5 -1 -5 -8z"/>
<path d="M1803 7033 c-23 -74 -23 -77 -4 -35 15 30 26 42 42 42 18 0 19 2 9
15 -20 24 -34 17 -47 -22z"/>
<path d="M1835 6330 c3 -5 8 -10 11 -10 2 0 4 5 4 10 0 6 -5 10 -11 10 -5 0
-7 -4 -4 -10z"/>
<path d="M1995 6240 c3 -5 8 -10 11 -10 2 0 4 5 4 10 0 6 -5 10 -11 10 -5 0
-7 -4 -4 -10z"/>
<path d="M2055 6210 c3 -5 8 -10 11 -10 2 0 4 5 4 10 0 6 -5 10 -11 10 -5 0
-7 -4 -4 -10z"/>
<path d="M8940 4599 c-197 -50 -843 -183 -1043 -215 -59 -9 -105 -19 -103 -21
3 -3 80 7 173 21 92 14 200 30 238 35 311 41 622 91 753 122 93 22 211 77 191
89 -8 6 -8 9 2 13 40 16 -35 0 -211 -44z"/>
<path d="M7733 4353 c9 -2 23 -2 30 0 6 3 -1 5 -18 5 -16 0 -22 -2 -12 -5z"/>
<path d="M7668 4343 c6 -2 18 -2 25 0 6 3 1 5 -13 5 -14 0 -19 -2 -12 -5z"/>
<path d="M2028 4273 c18 -2 45 -2 60 0 15 2 0 4 -33 4 -33 0 -45 -2 -27 -4z"/>
<path d="M2248 4263 c45 -2 119 -2 165 0 45 1 8 3 -83 3 -91 0 -128 -2 -82 -3z"/>
<path d="M3188 4263 c106 -2 277 -2 380 0 103 1 16 2 -193 2 -209 0 -293 -1
-187 -2z"/>
</g>
</svg>
